<?xml version="1.0" standalone="no"?>
<!DOCTYPE svg PUBLIC "-//W3C//DTD SVG 20010904//EN"
 "http://www.w3.org/TR/2001/REC-SVG-20010904/DTD/svg10.dtd">
<svg version="1.0" xmlns="http://www.w3.org/2000/svg"
 width="1280.000000pt" height="1006.000000pt" style="background-color:white" viewBox="0 0 1280.000000 1006.000000"
 preserveAspectRatio="xMidYMid meet">
<metadata>
Created by potrace 1.15, written by Peter Selinger 2001-2017
</metadata>
<g transform="translate(0.000000,1006.000000) scale(0.100000,-0.100000)"
fill="#000000" stroke="none">
<path d="M3435 10050 c-574 -66 -1105 -350 -1448 -775 -478 -592 -618 -1353
-381 -2065 50 -150 134 -333 211 -457 l51 -82 -106 -78 c-744 -545 -1202
-1239 -1318 -1995 -24 -154 -24 -462 -1 -614 80 -521 368 -993 760 -1247 197
-127 433 -207 747 -254 75 -11 219 -17 501 -20 l396 -5 6 -147 c14 -305 67
-525 186 -776 283 -593 703 -880 1411 -967 81 -10 450 -13 1640 -13 1699 0
1602 -3 1887 65 371 89 697 282 901 533 230 283 352 634 352 1014 l0 132 773
4 c811 4 818 4 1050 52 523 108 933 409 1146 841 225 458 223 1066 -5 1659
-216 559 -613 1077 -1170 1526 l-80 65 51 77 c188 281 311 610 356 952 17 134
14 429 -6 560 -60 395 -214 756 -452 1059 -88 111 -268 285 -387 373 -814 604
-1909 573 -2687 -76 -404 -337 -682 -852 -748 -1384 -5 -43 -11 -81 -14 -83
-2 -2 -44 14 -93 37 -183 85 -427 152 -648 180 -63 7 -175 10 -311 7 l-213 -5
-12 76 c-149 947 -869 1667 -1816 1817 -119 18 -418 26 -529 14z"/>
</g>
</svg>
